<?xml version="1.0" standalone="no"?>
<!DOCTYPE svg PUBLIC "-//W3C//DTD SVG 20010904//EN"
 "http://www.w3.org/TR/2001/REC-SVG-20010904/DTD/svg10.dtd">
<svg version="1.0" xmlns="http://www.w3.org/2000/svg"
 width="2364.000000pt" height="1279.000000pt" viewBox="0 0 2364.000000 1279.000000"
 preserveAspectRatio="xMidYMid meet">

<g transform="translate(0.000000,1279.000000) scale(0.100000,-0.100000)"
fill="#000000" stroke="none">
<path d="M671 11559 c-60 -12 -134 -62 -177 -120 -112 -152 -93 -389 40 -518
21 -21 39 -30 47 -26 7 5 10 4 6 -2 -4 -6 16 -21 46 -34 l52 -24 1259 -2 c693
-1 1263 -6 1267 -10 4 -4 17 -51 29 -103 12 -52 28 -124 36 -160 8 -36 17 -78
19 -95 3 -23 101 -457 140 -620 3 -11 7 -33 10 -50 4 -16 17 -77 30 -135 13
-58 60 -267 105 -465 45 -198 115 -508 156 -690 41 -181 84 -370 95 -420 11
-49 26 -117 34 -150 8 -33 24 -103 36 -155 12 -52 34 -151 50 -220 16 -69 43
-188 60 -265 17 -77 40 -178 50 -225 17 -74 41 -191 54 -255 2 -11 4 -20 5
-20 1 0 3 -9 5 -20 2 -11 11 -51 19 -90 9 -38 37 -164 62 -280 26 -115 55
-248 66 -295 10 -47 25 -114 33 -150 8 -36 26 -114 40 -175 14 -60 33 -141 41
-180 8 -38 26 -117 40 -175 14 -58 43 -186 65 -285 23 -99 52 -227 65 -285 13
-58 33 -145 44 -195 10 -49 35 -160 55 -245 20 -85 39 -173 44 -195 5 -22 22
-98 39 -170 16 -71 42 -184 56 -250 15 -66 33 -147 41 -180 8 -33 21 -91 30
-130 8 -38 20 -86 25 -105 5 -19 19 -80 30 -135 11 -55 25 -116 30 -135 5 -19
14 -60 20 -90 5 -30 16 -82 22 -115 l13 -60 1290 0 1290 0 49 29 c69 40 114
91 150 166 28 59 31 74 31 160 0 87 -3 101 -33 163 -39 79 -94 137 -166 175
l-51 27 -1022 3 -1023 2 -5 23 c-9 43 -66 293 -81 352 -35 146 -103 453 -106
480 l-3 30 1345 0 c1338 1 1345 1 1391 21 92 42 163 129 194 239 45 155 -26
344 -159 424 -85 52 -50 51 -1544 51 l-1392 0 -9 23 c-5 12 -17 58 -27 102 -9
44 -27 125 -40 180 -49 211 -77 341 -78 365 l-1 25 970 5 970 5 47 28 c134 80
197 206 186 366 -3 39 -11 78 -18 86 -7 8 -9 15 -5 15 12 0 -46 94 -83 132
-19 20 -62 49 -96 65 l-61 28 -1040 5 -1040 5 -17 75 c-10 41 -24 104 -32 140
-17 79 -79 353 -106 470 -11 47 -20 95 -20 108 l0 22 674 0 c647 0 677 1 739
20 136 42 227 168 235 326 7 130 -34 224 -134 312 -83 74 -48 71 -904 73 -489
0 -769 4 -777 10 -13 11 -68 243 -193 809 -22 102 -45 201 -50 220 -7 28 -51
223 -76 339 l-5 24 3393 -7 3393 -7 51 -25 c71 -34 139 -106 182 -194 36 -74
37 -77 37 -195 -1 -110 -5 -140 -58 -364 -32 -138 -57 -268 -57 -298 0 -147
94 -289 226 -339 61 -23 184 -16 239 15 104 59 152 135 194 311 130 548 141
640 101 873 -27 160 -111 397 -141 397 -5 0 -8 4 -4 9 8 14 -35 82 -48 74 -6
-3 -7 -1 -3 6 24 38 -299 348 -337 324 -6 -3 -7 -1 -4 4 4 6 -10 18 -31 28
-20 9 -53 25 -72 35 -20 10 -74 30 -120 43 l-85 25 -2470 6 c-2842 7 -4477 15
-4520 21 -30 5 -30 5 -63 153 -19 81 -44 192 -57 247 -13 55 -44 195 -70 310
-58 259 -79 329 -113 380 -37 54 -124 122 -169 134 -48 12 -2831 21 -2892 10z"/>
<path d="M9826 7829 c-345 -40 -658 -186 -878 -410 -362 -369 -460 -980 -234
-1444 164 -335 471 -583 991 -800 560 -234 756 -434 755 -774 -1 -307 -162
-518 -464 -605 -256 -75 -651 -38 -981 91 -100 39 -255 115 -297 144 -14 11
-29 16 -31 12 -5 -8 -64 -244 -132 -527 -40 -169 -43 -155 48 -205 277 -152
771 -255 1137 -237 330 16 570 75 798 197 140 74 178 103 315 237 167 164 274
361 334 612 20 85 26 140 30 290 9 339 -44 547 -202 785 -165 249 -435 447
-860 630 -60 26 -168 77 -240 112 -393 196 -527 336 -555 583 -28 246 86 452
311 561 122 59 194 73 394 73 187 0 269 -10 435 -55 85 -24 247 -88 327 -130
l53 -28 15 52 c51 179 165 603 165 613 0 15 -151 83 -284 129 -116 40 -297 78
-448 94 -110 12 -398 12 -502 0z"/>
<path d="M17650 7813 c-249 -27 -534 -120 -733 -239 -567 -341 -927 -974
-1022 -1799 -20 -166 -23 -537 -6 -700 67 -648 280 -1153 641 -1516 283 -284
601 -442 1010 -500 208 -30 555 -9 760 46 239 64 496 191 666 330 75 61 264
253 315 320 310 409 486 970 506 1615 5 166 -6 421 -22 524 -2 12 -6 44 -10
71 -22 189 -103 487 -181 670 -194 455 -476 779 -856 983 -164 89 -393 160
-601 187 -107 14 -372 18 -467 8z m340 -673 c401 -63 710 -373 877 -880 93
-284 130 -560 120 -910 -26 -951 -439 -1576 -1078 -1635 -159 -14 -379 31
-526 108 -259 135 -468 411 -592 782 -178 533 -152 1302 61 1805 172 407 443
655 794 724 83 17 255 20 344 6z"/>
<path d="M11944 7763 c-8 -6 -13 -650 -17 -2320 l-5 -2313 374 0 374 0 0 648
c0 357 3 818 7 1025 l6 377 462 0 c254 0 651 -3 883 -7 l422 -6 2 -1021 3
-1021 370 0 370 0 7 1345 c4 740 7 1782 5 2315 l-2 970 -372 3 -373 2 0 -322
c0 -178 -3 -596 -7 -930 l-6 -608 -884 0 -883 0 0 930 0 930 -342 0 c-189 0
-352 3 -363 5 -11 3 -25 2 -31 -2z"/>
<path d="M21144 7759 c-244 -13 -642 -59 -671 -78 -7 -4 -12 -787 -16 -2288
l-5 -2283 374 0 374 0 0 869 c0 479 3 872 8 875 4 2 30 -1 57 -6 28 -6 166
-11 310 -11 285 -1 372 9 586 63 536 136 910 491 1034 983 73 290 81 571 24
832 -11 50 -22 97 -26 105 -3 8 -7 20 -8 25 -22 90 -106 263 -181 370 -27 39
-87 107 -133 153 -232 228 -539 351 -986 392 -124 11 -514 11 -741 -1z m617
-629 c144 -14 246 -41 359 -96 172 -84 304 -247 355 -439 22 -83 31 -311 16
-416 -56 -393 -317 -636 -745 -689 -164 -21 -506 -2 -540 30 -4 5 -5 356 -1
793 l8 786 71 12 c65 11 218 24 326 27 25 1 93 -3 151 -8z"/>
<path d="M6490 2480 c-54 -9 -131 -32 -183 -55 -50 -21 -177 -105 -177 -117 0
-5 -8 -12 -17 -15 -21 -8 -53 -35 -53 -45 0 -4 -12 -20 -26 -35 -73 -78 -157
-239 -188 -360 -53 -206 -31 -437 59 -628 56 -119 129 -219 207 -286 61 -53
170 -129 185 -129 3 0 34 -11 67 -24 129 -51 298 -56 436 -14 290 90 491 317
567 640 27 115 22 317 -10 438 -27 100 -67 204 -86 223 -6 6 -11 15 -11 20 0
14 -80 127 -90 127 -6 0 -10 6 -11 13 -1 15 -117 113 -183 152 -148 89 -321
123 -486 95z m260 -467 c150 -68 254 -261 236 -441 -16 -161 -102 -288 -236
-351 -47 -22 -68 -26 -150 -26 -87 0 -100 3 -155 32 -77 40 -148 115 -188 201
-30 64 -32 73 -32 187 0 114 2 123 31 185 53 111 125 182 224 222 62 25 206
20 270 -9z"/>
</g>
</svg>
