<?xml version="1.0" standalone="no"?>
<!DOCTYPE svg PUBLIC "-//W3C//DTD SVG 20010904//EN"
 "http://www.w3.org/TR/2001/REC-SVG-20010904/DTD/svg10.dtd">
<svg version="1.0" xmlns="http://www.w3.org/2000/svg"
 width="1182.000000pt" height="1129.000000pt" viewBox="0 0 1182.000000 1129.000000"
 preserveAspectRatio="xMidYMid meet">

<g transform="translate(0.000000,1129.000000) scale(0.100000,-0.100000)"
fill="#000000" stroke="none">
<path d="M441 10979 c-60 -12 -134 -62 -177 -120 -112 -152 -93 -389 40 -518
21 -21 39 -30 47 -26 7 5 10 4 6 -2 -4 -6 16 -21 46 -34 l52 -24 1259 -2 c693
-1 1263 -6 1267 -10 4 -4 17 -51 29 -103 12 -52 28 -124 36 -160 8 -36 16 -78
19 -95 3 -23 101 -459 140 -620 3 -11 7 -33 10 -50 4 -16 17 -77 30 -135 13
-58 60 -267 105 -465 45 -198 115 -508 156 -690 41 -181 84 -370 95 -420 11
-49 26 -117 34 -150 8 -33 24 -103 36 -155 12 -52 34 -151 50 -220 16 -69 43
-188 60 -265 17 -77 40 -178 50 -225 17 -74 41 -191 54 -255 2 -11 4 -22 5
-25 1 -3 3 -9 4 -15 1 -5 9 -44 19 -85 9 -41 38 -169 63 -285 26 -115 55 -248
66 -295 10 -47 25 -114 33 -150 8 -36 26 -114 40 -175 14 -60 33 -141 41 -180
8 -38 26 -117 40 -175 14 -58 43 -186 65 -285 23 -99 52 -227 65 -285 13 -58
33 -145 44 -195 10 -49 35 -160 55 -245 20 -85 39 -173 44 -195 5 -22 22 -98
39 -170 16 -71 42 -184 56 -250 15 -66 33 -147 41 -180 8 -33 21 -91 30 -130
8 -38 20 -86 25 -105 5 -19 19 -80 30 -135 11 -55 25 -116 30 -135 9 -32 26
-117 36 -180 2 -14 7 -38 12 -55 l8 -30 1290 0 1289 0 41 22 c63 34 123 99
158 172 28 60 31 75 31 161 0 87 -3 101 -33 163 -39 79 -94 137 -166 175 l-51
27 -1022 3 -1023 2 -5 23 c-9 43 -66 293 -81 352 -35 146 -103 453 -106 480
l-3 30 1345 0 c1338 1 1345 1 1391 21 59 27 110 73 147 132 130 204 40 485
-181 565 -23 9 -409 13 -1452 17 l-1420 5 -18 70 c-9 39 -26 108 -36 155 -10
47 -36 159 -56 250 -21 91 -38 176 -39 190 l-1 25 970 5 970 5 47 28 c134 80
197 206 186 366 -3 39 -11 78 -18 86 -7 8 -9 15 -5 15 12 0 -46 94 -83 132
-19 20 -62 49 -96 65 l-61 28 -1040 5 -1040 5 -33 145 c-17 80 -48 215 -67
301 -19 85 -44 193 -55 240 -11 46 -20 94 -20 107 l0 22 674 0 c647 0 677 1
739 20 136 42 227 168 235 326 7 130 -34 224 -134 312 -83 74 -48 71 -904 73
-487 0 -769 4 -777 11 -13 10 -68 243 -193 808 -22 102 -45 201 -50 220 -7 28
-51 223 -76 339 l-5 24 3393 -7 3393 -7 51 -25 c71 -34 139 -106 182 -194 36
-74 37 -77 37 -195 -1 -110 -5 -140 -58 -364 -32 -138 -57 -268 -57 -298 0
-147 94 -289 226 -339 61 -23 184 -16 239 15 104 59 152 135 194 311 103 431
121 532 121 672 0 106 -31 293 -66 396 -34 102 -81 202 -95 202 -5 0 -8 4 -4
9 8 14 -35 82 -48 74 -6 -3 -7 -1 -3 6 24 38 -299 348 -337 324 -6 -3 -7 -1
-4 4 4 6 -10 18 -31 28 -20 9 -53 25 -72 35 -20 10 -74 30 -120 43 l-85 24
-2435 7 c-2864 7 -4513 15 -4555 21 -30 5 -30 5 -63 153 -19 81 -44 192 -57
247 -13 55 -44 195 -70 310 -58 259 -79 329 -113 380 -37 54 -124 122 -169
134 -48 12 -2831 22 -2892 10z"/>
<path d="M6260 1900 c-54 -9 -131 -32 -183 -55 -50 -21 -177 -105 -177 -117 0
-5 -8 -12 -17 -15 -21 -8 -53 -35 -53 -45 0 -4 -12 -20 -26 -35 -73 -78 -157
-239 -188 -360 -53 -206 -31 -437 59 -628 56 -119 129 -219 207 -286 61 -53
170 -129 185 -129 3 0 34 -11 67 -24 321 -127 721 34 903 363 85 154 117 286
116 471 -1 111 -5 152 -26 230 -27 100 -67 204 -86 223 -6 6 -11 15 -11 20 0
14 -80 127 -90 127 -6 0 -10 6 -11 13 -1 15 -117 113 -183 152 -148 89 -321
123 -486 95z m260 -467 c150 -68 254 -261 236 -441 -16 -161 -102 -288 -236
-351 -47 -22 -68 -26 -150 -26 -87 0 -100 3 -155 32 -77 40 -148 115 -188 201
-30 64 -32 73 -32 187 0 114 2 123 31 185 53 111 125 182 224 222 62 25 206
20 270 -9z"/>
</g>
</svg>
